# AST/ASF file generated using VICON BodyLanguage
# -----------------------------------------------
:version 1.10
:name VICON
:units
  mass 1.0
  length 0.45
  angle deg
:documentation
   .ast/.asf automatically generated from VICON data using
   VICON BodyBuilder and BodyLanguage model FoxedUp or BRILLIANT.MOD
:root
   order TX TY TZ RX RY RZ
   axis XYZ
   position 0 0 0  
   orientation 0 0 0 
:bonedata
  begin
     id 1 
     name lhipjoint
     direction 0.631061 -0.684803 0.364427 
     length 2.59943 
     axis 0 0 0  XYZ
  end
  begin
     id 2 
     name lfemur
     direction 0.34202 -0.939693 0  
     length 6.69088  
     axis 0 0 20  XYZ
    dof rx ry rz
    limits (-160.0 20.0)
           (-70.0 70.0)
           (-60.0 70.0)
  end
  begin
     id 3 
     name ltibia
     direction 0.34202 -0.939693 0   
     length 7.83506   
     axis 0 0 20   XYZ
    dof rx
    limits (-10.0 170.0)
  end
  begin
     id 4 
     name lfoot
     direction 0.176279 -0.484322 0.856947   
     length 2.95235   
     axis -90 7.62852e-016 20   XYZ
    dof rx rz
    limits (-45.0 90.0)
           (-70.0 20.0)
  end
  begin
     id 5 
     name ltoes
     direction 1.53551e-011 -4.21828e-011 1   
     length 1.41888   
     axis -90 7.62852e-016 20   XYZ
    dof rx
    limits (-90.0 20.0)
  end
  begin
     id 6 
     name rhipjoint
     direction -0.641155 -0.677457 0.360518   
     length 2.62761  
     axis 0 0 0  XYZ 
  end
  begin
     id 7 
     name rfemur
     direction -0.34202 -0.939693 0   
     length 6.52283   
     axis 0 0 -20   XYZ
    dof rx ry rz
    limits (-160.0 20.0)
           (-70.0 70.0)
           (-70.0 60.0)
  end
  begin
     id 8 
     name rtibia
     direction -0.34202 -0.939693 0   
     length 7.74138   
     axis 0 0 -20   XYZ
    dof rx
    limits (-10.0 170.0)
 end
 begin
     id 9 
     name rfoot
     direction -0.186474 -0.512334 0.838297   
     length 2.72941  
     axis -90 -7.62852e-016 -20   XYZ
    dof rx rz
    limits (-45.0 90.0)
           (-20.0 70.0)
  end
  begin
     id 10 
     name rtoes
     direction -1.53683e-011 -4.22007e-011 1   
     length 1.30521   
     axis -90 -7.62852e-016 -20   XYZ
    dof rx
    limits (-90.0 20.0)
  end
  begin
     id 11 
     name lowerback
     direction -0.0121201 0.985605 -0.168631   
     length 2.60975   
     axis 0 0 0   XYZ
    dof rx ry rz
    limits (-20.0 45.0)
           (-30.0 30.0)
           (-30.0 30.0)
  end
  begin
     id 12 
     name upperback
     direction -0.019495 0.999568 -0.0220039   
     length 2.65091   
     axis 0 0 0   XYZ
    dof rx ry rz
    limits (-20.0 45.0)
           (-30.0 30.0)
           (-30.0 30.0)
  end
  begin
     id 13 
     name thorax
     direction -0.0125765 0.998661 0.0501718   
     length 2.70267   
     axis 0 0 0   XYZ
    dof rx ry rz
    limits (-20.0 45.0)
           (-30.0 30.0)
           (-30.0 30.0)
  end
  begin
     id 14 
     name lowerneck
     direction -0.0309438 0.997491 -0.0636732   
     length 1.56498   
     axis 0 0 0   XYZ
    dof rx ry rz
    limits (-20.0 45.0)
           (-30.0 30.0)
           (-30.0 30.0)
  end
  begin
     id 15 
     name upperneck
     direction -0.00130017 0.992397 -0.123074   
     length 1.5414   
     axis 0 0 0   XYZ
    dof rx ry rz
    limits (-20.0 45.0)
           (-30.0 30.0)
           (-30.0 30.0)
  end
  begin
     id 16
     name head
     direction 0.00242507 0.999315 -0.0369171  
     length 1.60129  
     axis 0 0 0   XYZ
    dof rx ry rz
    limits (-20.0 45.0)
           (-30.0 30.0)
           (-30.0 30.0)
  end
  begin
     id 17 
     name lclavicle
     direction 0.996744 0.0363396 -0.0719802  
     length 4.63989  
     axis 0 0 0   XYZ
    dof ry rz
    limits (-20.0 10.0)
           (0.0 20.0)
  end
  begin
     id 18 
     name lhumerus
     direction 1 -4.49035e-011 -2.38432e-027   
     length 4.58161   
     axis 180 -30 -90   XYZ
    dof rx ry rz
    limits (-60.0 90.0)
           (-90.0 90.0)
           (-90.0 90.0)
  end
  begin
     id 19
     name lradius
     direction 1 0.000357117 -0.000206182   
     length 3.43782   
     axis 180 -30 -90   XYZ
    dof rx
    limits (-10.0 170.0)
  end
  begin
     id 20
     name lwrist
     direction 1 -7.34592e-005 -0.000404398   
     length 1.71891   
     axis 7.40711e-015 90 90   XYZ
    dof ry
    limits (-180.0 0.0)
 end
  begin
     id 21 
     name lhand
     direction 1 -4.48735e-011 -2.22254e-026   
     length 1.04662   
     axis 1.41817e-014 90 90   XYZ
    dof rx rz
    limits (-90.0 90.0)
           (-45.0 45.0)
  end
  begin
     id 22 
     name lfingers
     direction 1 -4.49414e-011 -4.44507e-026   
     length 0.843814   
     axis 2.83634e-014 90 90   XYZ
    dof rx
    limits (0.0 90.0)
  end
  begin
     id 23
     name lthumb
     direction 0.707107 -6.3482e-011 0.707107   
     length 1.21155   
     axis -90 45 2.85299e-015   XYZ
    dof rx rz
    limits (-45.0 45.0)
           (-45.0 45.0)
  end
  begin
     id 24 
     name rclavicle
     direction -0.997328 0.0105626 0.0722925   
     length 4.0272  
     axis 0 0 0   XYZ 
    dof ry rz
    limits (-10.0 20.0)
           (-20.0 0.0)
  end
  begin
     id 25 
     name rhumerus
     direction -1 -4.48913e-011 -1.83378e-027  
     length 4.53415   
     axis 180 30 90   XYZ
    dof rx ry rz
    limits (-90.0 60.0)
           (-90.0 90.0)
           (-90.0 90.0)
  end
  begin
     id 26 
     name rradius
     direction -0.999999 0.00120542 -0.000695951   
     length 3.33298   
     axis 180 30 90   XYZ
    dof rx
    limits (-10.0 170.0)
  end
  begin
     id 27 
     name rwrist
     direction -0.999999 0.000362235 -0.0013361   
     length 1.66649   
     axis 7.40711e-015 -90 -90   XYZ
    dof ry
    limits (-180.0 0.0)
  end
  begin
     id 28
     name rhand
     direction -1 -4.49379e-011 -2.22254e-026   
     length 1.21477   
     axis 1.41817e-014 -90 -90   XYZ
    dof rx rz
    limits (-90.0 90.0)
           (-45.0 45.0)
  end
  begin
     id 29
     name rfingers
     direction -1 -4.48656e-011 -4.44507e-026   
     length 0.979378   
     axis 2.83634e-014 -90 -90   XYZ
    dof rx
    limits (0.0 90.0)
  end
  begin
     id 30
     name rthumb
     direction -0.707107 -6.35052e-011 0.707107   
     length 1.4062   
     axis -90 -45 -2.85299e-015   XYZ
    dof rx rz
    limits (-45.0 45.0)
           (-45.0 45.0)
  end
:hierarchy
  begin
    root lhipjoint rhipjoint lowerback
    lhipjoint lfemur
    lfemur ltibia
    ltibia lfoot
    lfoot ltoes
    rhipjoint rfemur
    rfemur rtibia
    rtibia rfoot
    rfoot rtoes
    lowerback upperback
    upperback thorax
    thorax lowerneck lclavicle rclavicle
    lowerneck upperneck
    upperneck head
    lclavicle lhumerus
    lhumerus lradius
    lradius lwrist
    lwrist lhand lthumb
    lhand lfingers
    rclavicle rhumerus
    rhumerus rradius
    rradius rwrist
    rwrist rhand rthumb
    rhand rfingers
  end

#!OML:ASF X:\für Bonn\!DataBase\2005_08_12_Daniel\c3d\Daniel.ASF
:FULLY-SPECIFIED
:DEGREES
121
root 0.313631 17.1464 0.0835079 -36.4683 -78.8132 30.3268
lowerback 6.2078 -3.15371 -6.02178
upperback 1.43315 -4.68665 -2.14125
thorax -1.69221 -2.34292 1.49658
lowerneck 2.60794 1.54493 -4.73221
upperneck 5.42555 1.93112 -0.910218
head 1.20037 0.820517 0.506138
rclavicle -1.41696e-014 3.08116e-015
rhumerus 3.36616 -45.3697 -33.1796
rradius 11.174
rwrist 32.9811
rhand -29.056 9.04132
rfingers 7.12502
rthumb -2.40584 -20.9249
lclavicle -1.41696e-014 3.08116e-015
lhumerus -1.60052 39.4957 23.9909
lradius 21.2423
lwrist -19.5818
lhand -19.9492 8.07967
lfingers 7.12502
lthumb 6.38889 37.9633
rfemur 7.31839 18.9481 13.7879
rtibia 23.6543
rfoot -37.7085 -24.3709
rtoes -5.17245
lfemur -2.8427 -24.4542 -25.0367
ltibia 31.6
lfoot -28.3045 12.4334
ltoes -1.97638
122
root 0.319761 17.1462 0.0885387 -36.5628 -78.7819 30.4155
lowerback 6.26506 -3.16095 -6.05428
upperback 1.49373 -4.70163 -2.15581
thorax -1.65901 -2.35294 1.50179
lowerneck 2.54185 1.54478 -4.71365
upperneck 5.41519 1.93578 -0.900529
head 1.20821 0.823847 0.506718
rclavicle 3.60841e-014 2.74323e-014
rhumerus 2.47381 -43.4793 -33.13
rradius 11.783
rwrist 30.7231
rhand -28.8289 9.41527
rfingers 7.12502
rthumb -2.18643 -20.5533
lclavicle 3.60841e-014 2.74323e-014
lhumerus -2.06171 39.5944 24.4378
lradius 21.971
lwrist -18.9257
lhand -19.0486 7.74184
lfingers 7.12502
lthumb 7.2582 37.5974
rfemur 7.28848 18.7749 13.6486
rtibia 23.6426
rfoot -37.5944 -24.169
rtoes -5.035
lfemur -2.87341 -24.4464 -25.0853
ltibia 31.6129
lfoot -28.2661 12.4377
ltoes -1.91676
123
root 0.325998 17.147 0.0928077 -36.5878 -78.7372 30.4401
lowerback 6.32357 -3.16393 -6.08599
upperback 1.54652 -4.71155 -2.17571
thorax -1.63542 -2.36005 1.50119
lowerneck 2.53938 1.53436 -4.69641
upperneck 5.35772 1.92141 -0.867079
head 1.19068 0.819362 0.513813
rclavicle 8.67897e-014 2.19657e-014
rhumerus 1.94066 -43.0794 -33.4029
rradius 12.0539
rwrist 30.0216
rhand -28.6622 9.95943
rfingers 7.12502
rthumb -2.02542 -20.0107
lclavicle 8.67897e-014 2.19657e-014
lhumerus -2.60418 39.3859 24.8562
lradius 22.7713
lwrist -17.9218
lhand -18.0643 7.39991
lfingers 7.12502
lthumb 8.20825 37.2205
rfemur 7.2521 18.5781 13.5147
rtibia 23.6289
rfoot -37.4541 -24.028
rtoes -5.11613
lfemur -2.9142 -24.4347 -25.1201
ltibia 31.6266
lfoot -28.2193 12.4186
ltoes -1.92449
124
root 0.332276 17.1469 0.0981288 -36.5648 -78.7193 30.4113
lowerback 6.38679 -3.17965 -6.08107
upperback 1.6014 -4.73626 -2.19526
thorax -1.61419 -2.37457 1.482
lowerneck 2.48223 1.53698 -4.68445
upperneck 5.33712 1.92819 -0.83207
head 1.19351 0.824309 0.523182
rclavicle -6.69105e-014 -1.32192e-014
rhumerus 1.4106 -42.6231 -33.7447
rradius 12.3562
rwrist 29.3871
rhand -28.4637 10.5068
rfingers 7.12502
rthumb -1.83371 -19.4651
lclavicle -6.69105e-014 -1.32192e-014
lhumerus -3.22308 39.0677 25.2281
lradius 23.5803
lwrist -16.8148
lhand -17.049 7.04668
lfingers 7.12502
lthumb 9.18803 36.8265
rfemur 7.21516 18.3548 13.3907
rtibia 23.6116
rfoot -37.2887 -23.8391
rtoes -5.1026
lfemur -2.95521 -24.41 -25.129
ltibia 31.6474
lfoot -28.1879 12.3732
ltoes -1.88636
125
root 0.33876 17.1466 0.103501 -36.5898 -78.6744 30.4277
lowerback 6.46529 -3.18554 -6.10713
upperback 1.65819 -4.75108 -2.20979
thorax -1.59722 -2.38405 1.48531
lowerneck 2.43163 1.52443 -4.70855
upperneck 5.30008 1.91343 -0.792247
head 1.19024 0.81829 0.539836
rclavicle 2.13694e-015 -1.5704e-014
rhumerus 0.74647 -41.8668 -33.9823
rradius 12.7289
rwrist 28.537
rhand -28.2524 10.9989
rfingers 7.12502
rthumb -1.62968 -18.9746
lclavicle 2.13694e-015 -1.5704e-014
lhumerus -3.88434 38.5136 25.6724
lradius 24.4658
lwrist -15.3899
lhand -16.1268 6.69362
lfingers 7.12502
lthumb 10.0778 36.4323
rfemur 7.19297 18.162 13.2533
rtibia 23.593
rfoot -37.182 -23.6613
rtoes -5.05334
lfemur -2.99381 -24.3744 -25.1645
ltibia 31.6682
lfoot -28.1352 12.3301
ltoes -1.81902
126
root 0.34535 17.1471 0.109162 -36.5834 -78.638 30.414
lowerback 6.52525 -3.20202 -6.13155
upperback 1.72699 -4.77784 -2.22361
thorax -1.5567 -2.40046 1.48743
lowerneck 2.38784 1.52807 -4.73627
upperneck 5.23383 1.91876 -0.720315
head 1.176 0.823582 0.566812
rclavicle -2.93161e-014 -1.04362e-014
rhumerus 0.0946076 -41.1729 -34.3016
rradius 13.1223
rwrist 27.9015
rhand -28.0895 11.5356
rfingers 7.12502
rthumb -1.47233 -18.4391
lclavicle -2.93161e-014 -1.04362e-014
lhumerus -4.60831 37.8358 26.0759
lradius 25.3547
lwrist -13.8521
lhand -15.2071 6.31456
lfingers 7.12502
lthumb 10.965 36.0082
rfemur 7.16627 17.931 13.1148
rtibia 23.5658
rfoot -36.977 -23.501
rtoes -5.07662
lfemur -3.04443 -24.2923 -25.1782
ltibia 31.6973
lfoot -28.0663 12.2563
ltoes -1.84118
127
root 0.351826 17.1471 0.115199 -36.5691 -78.6071 30.3977
lowerback 6.5957 -3.21308 -6.15847
upperback 1.78336 -4.7983 -2.22117
thorax -1.53367 -2.41283 1.50844
lowerneck 2.30744 1.52349 -4.78849
upperneck 5.19951 1.91594 -0.668528
head 1.17814 0.823089 0.592286
rclavicle 3.95021e-015 3.39922e-014
rhumerus -0.654849 -40.1916 -34.5608
rradius 13.5756
rwrist 27.2107
rhand -28.0092 12.0618
rfingers 7.12502
rthumb -1.39478 -17.9134
lclavicle 3.95021e-015 3.39922e-014
lhumerus -5.3786 36.971 26.523
lradius 26.2494
lwrist -12.1757
lhand -14.4287 5.92742
lfingers 7.12502
lthumb 11.7157 35.5798
rfemur 7.13742 17.7529 12.9973
rtibia 23.5463
rfoot -36.8572 -23.3416
rtoes -5.04817
lfemur -3.10227 -24.2236 -25.1892
ltibia 31.7228
lfoot -28.0091 12.2011
ltoes -1.86612
